<svg id="Layer_1" data-name="Layer 1" xmlns="http://www.w3.org/2000/svg" viewBox="0 0 105 106"><defs><style>.cls-1{fill:#a32f16;}.cls-2{fill:none;stroke:#a32f16;stroke-miterlimit:10;stroke-width:4px;}</style></defs><path class="cls-1" d="M55.33,51.73V64.16c0,1.72,0,3.44,0,5.16,0,.72-.24,1-1,1-2,0-4,0-6,0-.81,0-1-.27-1-1,0-5.54,0-11.09,0-16.63,0-1.05,0-1.05-1.06-.9-2.57.34-2.71.22-2.71-2.33,0-1.12,0-2.24,0-3.36,0-.75.28-1,1-.93s1.37,0,2,0,.83-.22.83-.83c0-1.55,0-3.1.11-4.65a6.77,6.77,0,0,1,7-6.54c1.85,0,3.7,0,5.55-.1.71,0,1,.22.95.94,0,1.8,0,3.6,0,5.52H58.25c-2.85,0-2.89,1-3.07,3-.06.65,0,1.31,0,2s.2.72.72.71c1.64,0,3.27,0,5.06,0-.08,1.13-.15,2.2-.24,3.27-.07.86-.22,1.72-.26,2.58,0,.6-.27.82-.86.81C58.2,51.71,56.81,51.73,55.33,51.73Z"/><circle class="cls-2" cx="52.36" cy="51.99" r="48"/></svg>
