<svg id="Layer_1" data-name="Layer 1" xmlns="http://www.w3.org/2000/svg" viewBox="0 0 105 106"><defs><style>.cls-1{fill:#a32f16;}.cls-2{fill:none;stroke:#a32f16;stroke-miterlimit:10;stroke-width:4px;}</style></defs><path class="cls-1" d="M53.17,38.36a14.21,14.21,0,0,0-14.4,14.13,14.16,14.16,0,1,0,28.32.2A14.2,14.2,0,0,0,53.17,38.36ZM52.9,63A10.35,10.35,0,1,1,63.26,52.63,10.4,10.4,0,0,1,52.9,63Z"/><path class="cls-1" d="M80,37.45A14.12,14.12,0,0,0,74,28a12.83,12.83,0,0,0-6.42-2.52c-2.87-.23-5.75-.36-8.63-.42q-9.48-.18-18.95.27a14.79,14.79,0,0,0-7.58,2.28A13.9,13.9,0,0,0,25.79,38c-.52,4.9-.47,9.84-.57,15.32.08,2.95.17,6.45.29,10a42.77,42.77,0,0,0,.3,4.38,14.64,14.64,0,0,0,11.58,12,56.79,56.79,0,0,0,9,.52Q56,80.42,65.51,80a15.4,15.4,0,0,0,8-2.37A14.12,14.12,0,0,0,80,68a52.62,52.62,0,0,0,.52-8.13c.17-5.92.17-11.85-.13-17.77A42.42,42.42,0,0,0,80,37.45ZM76.77,54.74c-.11,3.95-.12,7.9-.49,11.83a10.17,10.17,0,0,1-4.7,7.63A11.31,11.31,0,0,1,65.39,76c-5.57.22-11.14.39-16.72.26-3.27-.07-6.55-.18-9.81-.41a10.62,10.62,0,0,1-9.21-9q-.31-3-.38-6.11c-.08-3.51-.27-7-.17-10.53.11-4,.13-7.94.52-11.9.45-4.58,4.91-8.75,9.52-9s9.18-.43,14-.39a128.63,128.63,0,0,1,13.94.44A10.18,10.18,0,0,1,75.15,35a10,10,0,0,1,1.2,4.47c.09,2,.24,4,.28,6C76.7,48.52,76.86,51.63,76.77,54.74Z"/><path class="cls-1" d="M68.12,34.4a3.1,3.1,0,0,0,.1,6.2,3.1,3.1,0,0,0-.1-6.2Z"/><circle class="cls-2" cx="52" cy="53" r="48"/></svg>
