<svg id="Layer_1" data-name="Layer 1" xmlns="http://www.w3.org/2000/svg" viewBox="0 0 249 89"><defs><style>.cls-1{fill:none;stroke:#fff;stroke-miterlimit:10;stroke-width:3px;}.cls-2{fill:#fff;}</style></defs><rect class="cls-1" x="16" y="16.7" width="214.04" height="52.85"/><path class="cls-2" d="M29.39,34.34l-2-.37V32.21h4c.37,0,.95,0,1.73-.06,1-.07,2-.11,2.8-.11a11,11,0,0,1,4.4.72,4.56,4.56,0,0,1,2.29,2.08,7.63,7.63,0,0,1,.68,3.42,7.34,7.34,0,0,1-2.09,5.57,8.1,8.1,0,0,1-5.81,2,17.17,17.17,0,0,1-2.11-.09v5.6l3.58.28v1.71H27.28V51.61l2.11-.28Zm6,9.72a3.53,3.53,0,0,0,2.87-1.32,7,7,0,0,0,1.08-4.39,5.15,5.15,0,0,0-1-3.48,3.78,3.78,0,0,0-3-1.1,10.41,10.41,0,0,0-1.55.12l-.53,0v10A9.84,9.84,0,0,0,35.37,44.06Z"/><path class="cls-2" d="M47.49,50.73a12.85,12.85,0,0,1-2.17-7.89,13.55,13.55,0,0,1,1.14-5.74,8.72,8.72,0,0,1,3.19-3.81A8.47,8.47,0,0,1,54.37,32c2.94,0,5.14.93,6.61,2.77s2.2,4.43,2.2,7.75A14,14,0,0,1,62,48.3a9.28,9.28,0,0,1-3.24,3.94A8.41,8.41,0,0,1,54,53.63,7.6,7.6,0,0,1,47.49,50.73ZM50.85,36a14.87,14.87,0,0,0-1.23,6.82,15.26,15.26,0,0,0,1.19,6.77,3.69,3.69,0,0,0,3.4,2.32,3.75,3.75,0,0,0,3.39-2.43,15.88,15.88,0,0,0,1.23-7,14.29,14.29,0,0,0-1.18-6.61,3.67,3.67,0,0,0-3.39-2.17A3.76,3.76,0,0,0,50.85,36Z"/><path class="cls-2" d="M68.89,34.34,66,34V32.21h8.33l3.17,12.22.75,3.32.64-3.32,3.15-12.22H90.3V34l-2.91.37,2.13,17,2.17.31v1.71H83.17V51.61l2.35-.28L84.35,38.89l-.51-5.2-1,4.37L79,52.44H76.15l-4-13.64-1.36-5.11-.4,5.2-1,12.44,2.7.28v1.71H64.7V51.61l2.24-.28Z"/><path class="cls-2" d="M95.58,34.34,93.45,34V32.21h14.22L108,37h-1.87l-.88-2.81-5.76-.25v7.64l3.71-.09.42-2.33h1.71V46h-1.71l-.42-2.45-3.71-.08v8l6.45-.34,1.55-3.64,2,.6-.69,5.2H93.47V51.61l2.11-.28Z"/><path class="cls-2" d="M122.82,52.25a8.72,8.72,0,0,1-3.22-3.79A13.07,13.07,0,0,1,118.51,43a13.09,13.09,0,0,1,1.27-6,8.7,8.7,0,0,1,3.59-3.78A11.08,11.08,0,0,1,128.79,32a27.91,27.91,0,0,1,6.53.89L135,38.12h-2.69l-.73-3.64a2.37,2.37,0,0,0-1-.52,6.55,6.55,0,0,0-1.95-.24A4.69,4.69,0,0,0,124.54,36a11.8,11.8,0,0,0-1.49,6.52,15.09,15.09,0,0,0,1.28,6.75,4.12,4.12,0,0,0,3.9,2.57,6.86,6.86,0,0,0,2-.28,3.58,3.58,0,0,0,1.41-.74V44.68l-2.83-.28V42.49h8.12V44.4l-1.42.25v7.53a10.39,10.39,0,0,0-2,.48c-1.14.33-2.11.57-2.92.73a13.83,13.83,0,0,1-2.68.24A9.06,9.06,0,0,1,122.82,52.25Z"/><path class="cls-2" d="M139.14,51.61l2.11-.28v-17l-2-.4V32.21h3.87l1.12,0,.93,0c.93-.08,1.69-.12,2.3-.12a13.21,13.21,0,0,1,4.4.6,4.44,4.44,0,0,1,2.41,1.82,6.15,6.15,0,0,1,.74,3.21,7.09,7.09,0,0,1-1,3.63,5.07,5.07,0,0,1-2.86,2.3,4.58,4.58,0,0,1,1.89,1.77,26.27,26.27,0,0,1,1.77,3.32c.44.93.78,1.59,1,2a1.37,1.37,0,0,0,.71.7l.88.28v1.68h-4.54c-.28,0-.58-.31-.89-.93a29.14,29.14,0,0,1-1.21-2.91q-.88-2.32-1.53-3.63a3.18,3.18,0,0,0-1.36-1.62h-2.75v7.1l2.46.28v1.71h-8.49ZM150,41.33a5.89,5.89,0,0,0,.86-3.49,4.67,4.67,0,0,0-.84-3.07,3.61,3.61,0,0,0-2.9-1,11.11,11.11,0,0,0-1.27.07,6.41,6.41,0,0,1-.68.08v8.52a12.39,12.39,0,0,0,1.55.05h.91A2.75,2.75,0,0,0,150,41.33Z"/><path class="cls-2" d="M165.3,32.1h4.08l6.17,19.23,1.55.28v1.71h-7.88V51.61l2-.28-1-3.69h-6.91l-1,3.72,2.16.25v1.71h-6.81l0-1.71,1.6-.28Zm1.84,4.8-.48-2.22-.51,2.25-2.37,8.72h5.87Z"/><path class="cls-2" d="M180.59,34.34,178.48,34V32.21h6.06l8,12.78L194,48.23V34.34l-2.3-.37V32.21h6.62V34l-2.05.37v19H193l-8.3-13.44-1.87-3.75v15.2l2.7.28v1.71h-7.08V51.61l2.11-.28Z"/><path class="cls-2" d="M202.66,34.34l-2-.37V32.21h3.9c.59,0,1.38,0,2.38-.11L208,32l1.27,0q4.91,0,7.35,2.62T219.05,42a14.06,14.06,0,0,1-1.21,6,9.47,9.47,0,0,1-3.46,4.07,9.31,9.31,0,0,1-5.23,1.47q-.78,0-2.43-.12c-1-.07-1.73-.11-2.11-.11h-4.05V51.61l2.1-.28Zm6.41,17.33a4.94,4.94,0,0,0,4.19-2.29c1-1.48,1.52-3.71,1.52-6.69a12.08,12.08,0,0,0-1.49-6.54,5.14,5.14,0,0,0-4.65-2.32,8.49,8.49,0,0,0-1.26.09l-.84.11V51.41A9.74,9.74,0,0,0,209.07,51.67Z"/></svg>
