<svg id="Layer_1" data-name="Layer 1" xmlns="http://www.w3.org/2000/svg" viewBox="0 0 278 86"><defs><style>.cls-1{fill:#fff;stroke:#000;stroke-miterlimit:10;stroke-width:2.5px;}</style></defs><rect class="cls-1" x="16.47" y="11.93" width="245.98" height="60.73"/><path d="M31.86,32.2l-2.3-.42v-2h4.63c.43,0,1.09,0,2-.06,1.19-.09,2.26-.13,3.22-.13a12.49,12.49,0,0,1,5.05.83,5.19,5.19,0,0,1,2.63,2.38,8.64,8.64,0,0,1,.79,3.94,8.4,8.4,0,0,1-2.41,6.39,9.28,9.28,0,0,1-6.67,2.29,19.82,19.82,0,0,1-2.43-.1v6.43l4.11.33v2h-11v-2l2.43-.33Zm6.87,11.17A4,4,0,0,0,42,41.85c.83-1,1.25-2.7,1.25-5.05a6,6,0,0,0-1.12-4,4.38,4.38,0,0,0-3.42-1.25,12.14,12.14,0,0,0-1.78.13,5.1,5.1,0,0,1-.62.06V43.2A11.87,11.87,0,0,0,38.73,43.37Z"/><path d="M52.65,51Q50.18,47.71,50.17,42a15.63,15.63,0,0,1,1.3-6.59A10.07,10.07,0,0,1,55.14,31a9.74,9.74,0,0,1,5.43-1.53q5.06,0,7.59,3.18t2.53,8.9a16,16,0,0,1-1.34,6.71,10.64,10.64,0,0,1-3.72,4.52,9.72,9.72,0,0,1-5.49,1.6C56.8,54.37,54.31,53.26,52.65,51Zm3.87-16.95q-1.41,2.65-1.41,7.84c0,3.42.45,6,1.36,7.79a4.26,4.26,0,0,0,3.91,2.66q2.49,0,3.9-2.79a18.35,18.35,0,0,0,1.41-8.05q0-5.1-1.35-7.59a4.23,4.23,0,0,0-3.9-2.5A4.32,4.32,0,0,0,56.52,34.09Z"/><path d="M77.25,32.2l-3.31-.42v-2h9.57l3.65,14L88,47.61l.74-3.82,3.62-14h9.47v2l-3.34.42L101,51.69l2.49.36v2H93.66v-2l2.7-.33L95,37.42l-.58-6-1.13,5L88.85,53H85.6L81.06,37.33l-1.57-5.88-.46,6-1.16,14.3,3.09.33v2H72.44v-2L75,51.72Z"/><path d="M107.93,32.2l-2.46-.42v-2h16.35l.4,5.49h-2.15l-1-3.24-6.62-.29v8.78l4.26-.1.49-2.67h2v7.9h-2l-.49-2.81-4.26-.1v9.21l7.42-.39,1.78-4.18,2.3.68-.8,6H105.5v-2l2.43-.33Z"/><path d="M139.23,52.78a9.91,9.91,0,0,1-3.7-4.35,15,15,0,0,1-1.25-6.27,15.07,15.07,0,0,1,1.45-6.89,9.92,9.92,0,0,1,4.13-4.34,12.7,12.7,0,0,1,6.23-1.47,32.45,32.45,0,0,1,7.51,1l-.34,6.07h-3.1l-.82-4.18a3,3,0,0,0-1.17-.6,7.28,7.28,0,0,0-2.24-.28,5.38,5.38,0,0,0-4.72,2.6q-1.72,2.6-1.72,7.49A17.46,17.46,0,0,0,141,49.32a4.77,4.77,0,0,0,4.48,3,7.75,7.75,0,0,0,2.3-.33,4.08,4.08,0,0,0,1.63-.85v-7l-3.25-.32V41.57h9.32v2.19l-1.63.29V52.7a11.67,11.67,0,0,0-2.33.56c-1.31.37-2.43.65-3.36.83a15.39,15.39,0,0,1-3.08.28A10.38,10.38,0,0,1,139.23,52.78Z"/><path d="M158,52.05l2.42-.33V32.2l-2.3-.46v-2h4.45l1.29,0c.47,0,.82,0,1.07-.07,1.06-.08,1.94-.13,2.64-.13a15.23,15.23,0,0,1,5.06.69,5.1,5.1,0,0,1,2.76,2.09,7,7,0,0,1,.86,3.69,8.08,8.08,0,0,1-1.14,4.18,5.83,5.83,0,0,1-3.28,2.64,5.28,5.28,0,0,1,2.18,2,29.89,29.89,0,0,1,2,3.81c.51,1.07.91,1.84,1.18,2.31s.55.73.82.8l1,.32V54h-5.22c-.32,0-.67-.35-1-1.06a34.84,34.84,0,0,1-1.4-3.35c-.67-1.78-1.26-3.18-1.75-4.18a3.68,3.68,0,0,0-1.56-1.86h-3.16v8.16l2.82.33v2H158Zm12.48-11.82a6.79,6.79,0,0,0,1-4,5.41,5.41,0,0,0-1-3.53,4.19,4.19,0,0,0-3.33-1.14,10.24,10.24,0,0,0-1.46.08c-.4.05-.66.08-.78.08V41.5a12.49,12.49,0,0,0,1.78.07h1A3.19,3.19,0,0,0,170.47,40.23Z"/><path d="M188.05,29.62h4.69l7.09,22.1,1.77.33v2h-9v-2l2.3-.33-1.2-4.24h-7.94l-1.2,4.28,2.48.29v2h-7.82l0-2,1.84-.33Zm2.11,5.52-.55-2.55L189,35.17l-2.73,10h6.75Z"/><path d="M205.62,32.2l-2.42-.42v-2h7l9.14,14.69L221,48.17v-16l-2.64-.42v-2H226v2l-2.36.42V54h-3.71l-9.54-15.44-2.15-4.31V51.72l3.1.33v2H203.2v-2l2.42-.33Z"/><path d="M231,32.2l-2.3-.42v-2h4.48c.67,0,1.58,0,2.73-.13l1.21-.06c.54,0,1,0,1.46,0q5.64,0,8.45,3t2.8,8.52a16.06,16.06,0,0,1-1.39,6.85,11,11,0,0,1-4,4.69,10.79,10.79,0,0,1-6,1.68c-.59,0-1.52,0-2.79-.13s-2-.13-2.42-.13h-4.66v-2l2.42-.33Zm7.36,19.92a5.7,5.7,0,0,0,4.82-2.63c1.16-1.71,1.75-4.27,1.75-7.69a13.94,13.94,0,0,0-1.72-7.53,5.92,5.92,0,0,0-5.34-2.66,11.29,11.29,0,0,0-1.46.1l-1,.13v20A11,11,0,0,0,238.35,52.12Z"/></svg>
