<svg id="Layer_1" data-name="Layer 1" xmlns="http://www.w3.org/2000/svg" viewBox="0 0 105 106"><defs><style>.cls-1{fill:#a32f16;}.cls-2{fill:none;stroke:#a32f16;stroke-miterlimit:10;stroke-width:4px;}</style></defs><path class="cls-1" d="M77.14,38.28a27.91,27.91,0,0,1-4.47,4.62c-.45.36-.39.86-.4,1.35A31.11,31.11,0,0,1,70.44,54.4c-3.91,10.34-11.11,17-22.11,19a28.85,28.85,0,0,1-20.28-3.48,3.14,3.14,0,0,1-.48-.33s-.05-.11-.15-.38a21.08,21.08,0,0,0,14.27-3.93c-.16-.43-.51-.31-.77-.36a10.45,10.45,0,0,1-7.9-6c-.44-.95-.38-1,.67-1a8.79,8.79,0,0,0,3-.24A11.3,11.3,0,0,1,32.25,55a10.35,10.35,0,0,1-3.19-6.53c-.09-.92.06-1,1-.72a7,7,0,0,0,2.84.67c0-.52-.42-.68-.67-.94a10.47,10.47,0,0,1-2.29-11.31c.52-1.25.59-1.29,1.5-.33A30.71,30.71,0,0,0,44,44.11a30.84,30.84,0,0,0,6.58,1.39c.72.08,1-.13.93-.9a10.47,10.47,0,0,1,2.38-7.92,10.21,10.21,0,0,1,14-1.64,3.18,3.18,0,0,0,3.72.57c.94-.44,1.92-.81,2.89-1.19.37-.14.83-.58,1.14-.23s-.16.77-.34,1.14a12.46,12.46,0,0,1-3.06,3.72c.4.28.73.08,1,0,1.33-.19,2.51-.93,3.86-1Z"/><circle class="cls-2" cx="52.36" cy="52.99" r="48"/></svg>
